<!--?xml version="1.0" encoding="utf-8"?-->
<!-- Generator: Adobe Illustrator 19.1.1, SVG Export Plug-In . SVG Version: 6.00 Build 0)  -->
<svg version="1.1" id="_x31_0" xmlns="http://www.w3.org/2000/svg" xmlns:xlink="http://www.w3.org/1999/xlink" x="0px" y="0px" viewBox="0 0 512 512" style="width: 256px; height: 256px; opacity: 1;" xml:space="preserve">
<style type="text/css">
	.st0{fill:#374149;}
</style>
<g>
	<path class="st0" d="M265.234,209.95c1.313,2.746,3.054,5.516,5.383,7.938c2.281,2.516,4.992,5.02,8.09,7.446
		c3.172,2.25,6.867,4.157,10.84,6.043c3.946,1.969,8.535,2.891,13.219,4.047c4.723,1.004,9.848,1.098,15.009,1.157
		c10.395-0.699,20.262-3.27,28.095-7.918c7.867-4.501,13.836-10.266,17.434-16.326c5.402-8.766,5.875-17.489,2.61-23.762
		c-0.059-0.11-0.09-0.23-0.149-0.336c-0.309-0.566-0.711-1.058-1.082-1.578c-0.359-0.523-0.687-1.062-1.113-1.539
		c-0.035-0.038-0.086-0.07-0.122-0.113c-0.742-0.809-1.539-1.578-2.461-2.246c-0.012,0.012-0.043,0.039-0.054,0.05
		c-0.043-0.027-0.07-0.066-0.114-0.098c0.824-0.926-3.211,3.723-11.442,8.493c-8.055,4.958-20.314,9.012-33.111,9.645
		c-12.833,0.496-26.103-2.382-35.728-6.278c-2.438-0.793-4.665-1.598-6.578-2.602c-1.934-0.906-3.626-1.695-5.012-2.344
		c-2.79-1.285-4.383-2.019-4.383-2.019c-2.293,4.375-3.027,9.207-2.055,14.379C262.996,204.571,263.906,207.235,265.234,209.95z" style="fill: rgb(223, 86, 86);"></path>
	<path class="st0" d="M268.902,94.272c-3.016,0.012-6.278,0.371-9.715,1.086c-3.379,0.828-6.762,2.523-10.313,4.371
		c-1.809,0.863-3.454,2.149-5.086,3.566c-1.649,1.383-3.289,2.883-4.898,4.477c-1.645,1.551-2.875,3.641-4.262,5.582
		c-1.27,2.043-2.785,3.985-3.617,6.363c-0.626,1.321-1.004,2.676-1.473,4.024c-0.02,0.054-0.039,0.11-0.059,0.164
		c-2.706,7.891-2.988,16.04-1.726,22.853c1.746,8.078,5.532,14.41,9.938,18.719c9.031,8.63,20.177,9.407,28.181,3.669
		c0.554,0.871-2.172-3.543-3.856-10.727c-1.008-3.57-1.277-7.68-1.293-11.86c0.274-2.02,0.234-4.192,0.886-6.137
		c0.282-2.086,1.223-3.954,1.95-5.899c0.782-1.93,2.153-3.629,3.118-5.492c1.546-1.618,2.758-3.364,4.297-4.922
		c1.75-1.446,3.394-2.883,4.934-4.286c1.875-1.207,3.649-2.347,5.286-3.402c0.813-0.535,1.594-1.05,2.336-1.543
		c0.856-0.402,1.668-0.785,2.43-1.14c1.524-0.727,2.848-1.364,3.938-1.883c2.175-1.062,3.418-1.668,3.418-1.668
		c-1.879-4.566-4.809-8.36-8.918-11.13c-2.05-1.386-4.39-2.519-7-3.375C274.785,94.839,271.875,94.147,268.902,94.272z" style="fill: rgb(223, 86, 86);"></path>
	<path class="st0" d="M303.329,190.551c1.43,0.406,2.871,0.914,4.446,1.117c1.582,0.18,3.219,0.305,4.895,0.375
		c3.32,0.313,6.93-0.39,10.531-1.168c7.161-2.031,13.731-5.969,17.731-11.184c4.106-5.063,6.13-10.598,6.262-15.45
		c0.359-8.047-3.602-13.786-9.106-16c-0.29-0.122-0.563-0.27-0.864-0.371c-0.218-0.07-0.449-0.098-0.671-0.157
		c-0.63-0.179-1.254-0.367-1.922-0.457c-0.004,0.012-0.012,0.039-0.019,0.051c-0.047-0.004-0.09-0.024-0.141-0.028
		c0.199-0.93-0.543,2.774-3.535,7.169c-1.45,2.191-3.395,4.5-5.895,6.282c-2.375,1.976-5.43,3.258-8.742,4.23
		c-6.766,1.703-15.079,1.086-21.423-0.523c-3.144-0.555-5.847-1.727-7.703-2.2c-1.871-0.574-2.942-0.898-2.942-0.898
		c-2.562,6.872-0.863,14.65,5.61,21.427C293.181,185.855,297.556,189.015,303.329,190.551z" style="fill: rgb(223, 86, 86);"></path>
	<path class="st0" d="M288.438,152.639c0.153,0.102,0.286,0.222,0.442,0.32c1.125,0.68,2.324,1.168,3.602,1.559
		c0.215,0.062,0.422,0.14,0.641,0.199c1.363,0.355,2.75,0.527,4.207,0.546c0.09,0.004,0.168,0.035,0.258,0.035
		c0.301,0,0.602-0.008,0.914-0.008c0.504,0,1.027,0.02,1.602,0.118c0-0.027,0.015-0.106,0.019-0.137
		c0.043-0.004,0.086,0.008,0.133,0.004c0.016,0.918-0.102-0.926,0.809-3.618c0.805-2.726,2.754-5.75,5.626-8.129
		c3.008-2.278,7.098-4.063,10.786-4.723c1.672-0.55,3.426-0.539,4.481-0.77c1.109-0.168,1.738-0.262,1.738-0.262
		c-0.614-7.313-3.786-13.845-9.926-17.587c-5.91-3.73-15.532-3.976-23.767,2.348c-3.918,3.278-6.836,7.504-7.906,11.899
		c-1.133,4.348-0.785,8.535,0.766,11.895C284.086,149.103,286.11,151.111,288.438,152.639z" style="fill: rgb(223, 86, 86);"></path>
	<path class="st0" d="M361.641,115.015c1.063-6.125,0.153-13.176-2.598-20.493c-2.984-7.126-7.883-14.532-14.86-20.142
		c-6.797-5.86-14.715-9.317-22.075-11.016c-7.418-1.649-14.434-1.321-20.278,0.301c-11.782,3.328-18.77,11.954-18.606,21.829
		c-0.89-0.027,4.466,0.238,12.321,2.695c3.95,1.098,8.325,2.985,12.872,5.13c4.363,2.418,8.997,5.07,12.852,8.516
		c8.036,6.574,13.758,15.2,16.825,22.446c1.77,3.492,2.606,6.782,3.286,9.035c0.703,2.242,1.106,3.524,1.106,3.524
		c4.801-1.153,9.004-3.434,12.36-7.094C358.121,126.13,360.989,121.008,361.641,115.015z" style="fill: rgb(223, 86, 86);"></path>
	<path class="st0" d="M177.308,178.331c0.458,0.05,0.887,0.222,1.352,0.238l-0.098-0.023l0.004-0.027
		c0.054,0,0.102,0.023,0.156,0.023c-0.094,1.078,0.981-11.551,6.535-29.548c5.45-17.895,15.888-41.053,31.931-58.35
		c15.622-17.818,36.771-28.158,53.905-32.392c8.61-2.058,16.064-3.078,21.353-3.508c5.321-0.348,8.36-0.547,8.36-0.547
		c-0.18-6.168-3.126-11.856-9.051-16.841c-5.899-4.93-14.758-8.734-26.201-10.278c-11.352-1.355-25.38-0.274-39.97,5.145
		c-14.516,5.352-29.54,14.97-41.455,28.334c-12.118,13.227-20.051,28.314-24.677,42.451c-4.586,14.211-5.914,27.591-5.062,38.838
		C156.112,163.565,165.624,177.191,177.308,178.331z" style="fill: rgb(223, 86, 86);"></path>
	<path class="st0" d="M456.661,158.705c-0.962-12.493-4.438-22.77-9.415-29.095c-2.457-3.156-5.347-5.266-8.301-6.114
		c-1.508-0.367-3-0.5-4.5-0.484c-0.746,0.012-1.497,0.054-2.25,0.129l-1.422,0.176l-0.86,0.008l0.043,0.144
		c0,0-0.058,0.016-0.039,0.016c0,0.031,0,0.078-0.004,0.141c0.004,0.129,0.008,0.312,0.055,0.55
		c0.023,0.828,0.058,2.454-0.122,5.047c-0.32,5.145-1.703,13.735-4.379,23.853c-2.629,10.164-6.855,21.903-12.469,33.712
		c-5.766,11.685-13.013,23.51-21.845,33.092c-8.661,9.832-18.899,16.966-29.083,21.446c-10.31,4.214-20.739,5.606-30.022,5.305
		c-4.613,0.054-8.985-0.817-12.825-1.207c-3.878-0.902-7.266-1.512-10.062-2.278c-5.602-1.707-8.806-2.688-8.806-2.688
		c-2.042,5.821-1.05,12.258,3.414,19.224c0.543,0.875,1.332,1.668,1.996,2.496c0.078,0.094,0.153,0.191,0.23,0.29
		c1.993,2.422,4.313,4.762,7.254,7.218c2.016,1.738,4.364,3.001,6.887,4.501c2.539,1.445,5.294,2.918,8.348,3.946
		c12.005,4.766,28.576,6.77,46.444,2.32c4.531-0.894,8.813-2.758,13.363-4.402c4.274-2.059,8.837-4.07,12.923-6.805
		c8.5-5.149,16.254-11.81,23.051-19.341c6.879-7.505,12.411-15.583,16.81-23.705c4.493-8.098,7.801-16.278,10.258-24.204
		C456.274,186.136,457.649,171.233,456.661,158.705z" style="fill: rgb(223, 86, 86);"></path>
	<path class="st0" d="M328.373,29.523c7.978,5.653,16.88,12.802,25.064,21.333c8.106,8.559,15.661,18.411,20.669,29.025
		c2.723,5.235,4.45,10.735,6.059,16.13c1.246,5.473,2.226,10.899,2.39,16.262c0.527,10.7-1.21,20.927-3.558,29.662
		c-2.707,8.715-5.692,15.946-8.173,20.923c-2.527,4.973-3.969,7.817-3.969,7.817c5.391,3,11.841,3.262,19.251,0.504
		c3.801-1.336,7.469-3.566,11.294-6.602c0.875-0.648,1.683-1.523,2.527-2.27c0.054-0.05,0.114-0.102,0.168-0.156
		c2.93-2.618,5.746-5.618,8.551-9.266c4.078-5.555,7.782-12.571,10.638-20.607c0.199-0.57,0.382-1.171,0.574-1.762
		c1-3.019,1.836-6.176,2.524-9.504c0.176-0.859,0.328-1.742,0.48-2.63c0.298-1.71,0.731-3.312,0.93-5.098
		c1.961-16.43-0.887-35.755-9.485-52.951c-1.977-4.403-4.536-8.321-6.93-12.274c-2.664-3.719-5.215-7.469-8.141-10.715
		c-1.031-1.23-2.16-2.234-3.227-3.387c-0.633-0.687-1.285-1.367-1.945-2.043c-4.192-4.289-8.509-8.238-12.887-11.598
		c-12.524-9.383-25.244-15.134-36.584-17.99c-18.189-4.598-32.521-2.098-39.634,5.008c-0.332,0.325-0.649,0.657-0.95,1
		c-0.473,0.555-0.938,1.102-1.328,1.703c-0.68,1.02-1.27,2.094-1.688,3.246l0.008,0.004c-0.019,0.051-0.054,0.09-0.074,0.145
		C299.989,13.031,312.268,18.253,328.373,29.523z" style="fill: rgb(223, 86, 86);"></path>
	<path class="st0" d="M301.896,271.991c-15.895-8.602-36.064-22.466-51.202-40.002c-7.618-8.696-14.047-18.142-18.762-27.536
		c-4.719-9.399-7.782-18.697-9.504-26.888c-0.977-4.067-1.446-7.911-1.966-11.282c-0.258-3.426-0.691-6.383-0.746-8.867
		c-0.126-4.969-0.195-7.805-0.195-7.805c-6.173-0.07-11.978,2.457-17.2,7.914c-5.138,5.43-9.243,13.797-11.262,24.716
		c-1.879,10.852-1.29,24.231,2.93,38.259c4.126,14.044,12.075,28.45,23.071,40.935c3.813,4.403,7.872,8.376,12.055,11.986
		c-3.008,5.222-6.758,11.657-11.126,18.997c-0.742-0.234-1.476-0.489-2.222-0.715c-3.102-0.938-6.223-1.816-9.364-2.629
		c-2.098-0.543-3.926-0.965-5.641-2.352c-4.23-3.426-8.332-6.918-12.84-10c-6.977-4.758-14.872-9.086-23.181-12.094l0,0
		c-1.07-0.39-2.153-0.75-3.234-1.094c-0.07-0.024-0.141-0.047-0.215-0.066c-1.062-0.336-2.133-0.641-3.207-0.922
		c-0.074-0.019-0.149-0.039-0.222-0.062c-1.133-0.293-2.266-0.558-3.406-0.793c-0.008,0-0.02-0.004-0.031-0.004
		c-3.914-0.809-7.872-1.098-11.833-1.11c-0.058,0-0.118-0.012-0.176-0.012c-0.179,0-0.359,0.032-0.539,0.035
		c-1.886,0.016-3.77-0.05-5.649,0.184c-3.898,0.488-7.718,1.473-11.422,2.774c-0.71,0.25-1.394,0.566-2.102,0.84
		c-0.679,0.266-1.359,0.531-2.031,0.812c-1.418,0.594-2.816,1.227-4.203,1.899c-0.61,0.293-1.218,0.586-1.82,0.894
		c-1.329,0.679-2.641,1.39-3.938,2.137c-0.656,0.371-1.305,0.746-1.949,1.129c-1.066,0.641-2.122,1.301-3.168,1.981
		c-0.836,0.542-1.668,1.09-2.485,1.648c-0.801,0.547-1.594,1.098-2.379,1.665c-1,0.714-1.977,1.441-2.942,2.171
		c-1.484,1.134-2.942,2.286-4.382,3.466c-0.153,0.121-0.305,0.246-0.458,0.371c-3.882,3.195-7.633,6.531-11.215,9.922
		c-1.684,1.594-3.184,3.367-4.821,5.008c-2.117,2.125-4.211,4.301-6.297,6.55c-1.625,1.75-3.387,3.372-4.965,5.161
		c-1.035,1.176-2.024,2.39-3.039,3.586c-0.032,0.038-0.063,0.074-0.094,0.113c-0.988,1.168-2,2.317-2.969,3.5
		c-1.274,1.563-4.598,4.602-4.508,6.673c0.086,1.992,2.528,1.762,3.981,1.89c1.89,0.168,3.782,0.383,5.657,0.707
		c5.023,0.863,9.711,2.574,14.336,4.676c8.286,3.774,16.423,7.856,24.884,11.238c9.356,3.746,19.15,6.81,29.24,7.642
		c10.321,0.847,20.646-1.18,30.048-5.481c8.883-4.067,16.696-10.138,23.361-17.247c0.594-0.637,1.145-1.313,1.722-1.961
		c0.219-0.246,0.438-0.496,0.657-0.75c1.274-1.457,2.508-2.949,3.703-4.477l0,0c0.683-0.875,1.39-1.734,2.05-2.625
		c1.199-1.625,2.364-3.274,3.497-4.946c0.871-1.289,2.586-3.082,2.543-4.711c-0.082-2.852-4.63-3.5-6.708-4.219
		c-2.34-0.812-4.695-1.586-7.07-2.297c-5.531-1.649-11.161-2.95-16.86-3.852c-11.516-1.82-23.259-1.941-34.826-0.504
		c-1.817,0.223-3.626,0.489-5.434,0.786c-1.328,0.218-2.801,0.718-4.145,0.336c-0.293-0.086-0.91-0.406-1.445-0.813
		c-0.352-0.336-0.661-0.777-0.887-1.305c0.004-0.074-0.062-0.152-0.035-0.222c0.133-0.344,2.309-0.793,2.707-0.922
		c4.977-1.598,10.102-2.703,15.278-3.418c7.598-1.051,15.29-1.282,22.95-0.938c0.054,0,0.109,0.004,0.164,0.008
		c2.531,0.113,5.058,0.289,7.574,0.523c12.938,1.188,25.88,3.77,38.455,7.402c1.262,0.379,2.527,0.703,3.789,1.11
		c-14.043,23.427-33.166,54.182-52.729,84.726c-1.016,1.59-2.035,3.176-3.055,4.766l-11.539-3.462
		c-2.122-0.637-3.754,1.895-2.297,3.567l7.93,9.094C123.77,442.101,95.89,483.915,85.39,499.592
		c-2.434,3.637-1.473,8.528,2.137,11.001c3.61,2.472,8.519,1.609,11.031-1.977c6.586-9.387,19.81-28.306,35.842-51.593l8.165,2.477
		c2.117,0.637,3.754-1.89,2.305-3.562l-5.426-6.25c11.86-17.274,24.95-36.502,37.912-55.862c4.118-6.134,8.2-12.258,12.243-18.353
		c0.246-0.359,0.476-0.718,0.726-1.074c11.082,8.399,21.387,18.083,30.193,28.771c5.59,6.79,10.622,14.098,14.528,21.993
		c1.988,4.02,3.68,8.196,4.95,12.501c0.102,0.344,0.832,2.106,0.652,2.367c-0.492,0.711-2.375-0.195-2.805-0.554
		c-0.922-0.766-1.278-2.055-1.766-3.102c-0.66-1.426-1.348-2.84-2.062-4.238c-4.563-8.911-10.317-17.189-17.173-24.49
		c-1.098-1.168-2.367-2.153-3.516-3.27c-1.226-1.196-2.481-2.36-3.778-3.512c-1.218-1.082-2.316-2.297-3.582-3.329
		c-1.648-1.343-3.336-2.644-5.046-3.914c-1.516-1.13-4.165-4.047-6.231-2.727c-1.18,0.758-1.625,2.84-2.117,4.086
		c-0.641,1.606-1.254,3.23-1.825,4.867c-0.316,0.898-0.586,1.813-0.875,2.719v0.004c-0.507,1.586-0.969,3.183-1.394,4.793
		c-0.07,0.278-0.145,0.551-0.214,0.828c-0.18,0.723-0.395,1.438-0.559,2.169c-1.832,8.164-2.367,16.641-0.969,24.915
		c1.481,8.754,5.032,17.067,10.614,23.985c5.462,6.762,12.368,12.239,19.544,17.075c6.489,4.371,13.318,8.18,19.994,12.246
		c3.726,2.27,7.203,4.77,10.246,7.918c1.133,1.176,2.195,2.414,3.23,3.68c0.793,0.969,1.809,2.813,3.266,1.91
		c1.516-0.934,2.067-4.766,2.559-6.418c0.375-1.262,0.703-2.535,1.054-3.805c0.012-0.039,0.024-0.078,0.035-0.117
		c0.359-1.301,0.742-2.586,1.074-3.891c1.66-6.434,3.051-12.938,4.114-19.493c0.676-4.18,1.234-8.454,1.633-12.758
		c0.012-0.164,0.027-0.336,0.039-0.5c0.144-1.59,0.258-3.188,0.344-4.786c0.054-1.039,0.098-2.082,0.129-3.137
		c0.019-0.832,0.023-1.66,0.031-2.492c0-0.852-0.012-1.703-0.031-2.563c-0.024-1.07-0.066-2.137-0.126-3.203
		c-0.035-0.645-0.086-1.285-0.137-1.93c-0.098-1.282-0.226-2.555-0.382-3.828c-0.074-0.578-0.156-1.153-0.242-1.727
		c-0.191-1.309-0.422-2.606-0.687-3.898c-0.122-0.614-0.262-1.226-0.402-1.836c-0.149-0.633-0.25-1.274-0.418-1.898
		c-0.859-3.258-2.008-6.446-3.543-9.45c-2.39-4.672-5.641-8.817-9.426-12.489c-0.008-0.008-0.012-0.012-0.02-0.016
		c-0.714-0.699-1.453-1.375-2.207-2.035c-0.05-0.043-0.102-0.09-0.152-0.133c-0.719-0.625-1.454-1.238-2.203-1.832
		c-0.051-0.039-0.102-0.078-0.149-0.118c-0.766-0.609-1.546-1.195-2.34-1.773l0,0c-6.149-4.45-13.031-7.966-19.782-10.618
		c-4.36-1.714-8.825-2.942-13.298-4.289c-1.817-0.547-2.997-1.645-4.395-2.875c-2.094-1.832-4.222-3.629-6.39-5.379
		c-1.504-1.215-3.032-2.402-4.574-3.574c7.821-11.825,15.344-23.345,22.329-34.158l11.294,3.422
		c2.118,0.641,3.758-1.886,2.305-3.562l-7.758-8.942c3.829-5.974,7.47-11.7,10.802-17.005c5.543-8.806,10.309-16.556,14.114-22.83
		c2.145,1.278,4.286,2.497,6.414,3.606c12.509,6.368,24.724,9.876,35.443,11.016c14.43,1.516,25.95-1.171,32.939-6.676
		c0.015-0.011,0.031-0.027,0.046-0.038c1.074-0.852,2.067-1.746,2.914-2.731c0.254-0.285,0.434-0.606,0.668-0.898
		c0.586-0.778,1.203-1.535,1.653-2.379c0.656-1.195,1.176-2.453,1.527-3.781l-0.035-0.012c0.012-0.054,0.047-0.098,0.058-0.152
		C329.377,284.418,317.846,280.683,301.896,271.991z" style="fill: rgb(223, 86, 86);"></path>
</g>
</svg>
