<!--?xml version="1.0" encoding="utf-8"?-->
<!-- Generator: Adobe Illustrator 22.1.0, SVG Export Plug-In . SVG Version: 6.00 Build 0)  -->
<svg version="1.1" id="_x36_" xmlns="http://www.w3.org/2000/svg" xmlns:xlink="http://www.w3.org/1999/xlink" x="0px" y="0px" viewBox="0 0 705.292 800" style="width: 441px;" xml:space="preserve">
<style type="text/css">
	.st0{fill:#53B232;}
</style>
<g>
	<path class="st0" d="M506.37,727.454C353.523,657.396,366.25,491.806,366.25,459.958c0-31.848-13.243-75.951-25.47-12.742
		c-12.727,254.769,114.649,343.92,159.225,350.297C544.58,803.864,547.326,746.218,506.37,727.454z M662.59,329.564
		c-42.087-96.787-184.987-17.991-240.961,16.704c-38.268,23.71-49.588,26.299-60.32,24.397c-3.625-1.831-7.902-5.836-10.568-14.501
		c0.687-3.69,1.373-7.552,2.103-11.856c8.094-48.551,94.105-103.023,117.259-202.985c23.117-99.977-59.191-107.342-59.191-107.342
		c-52.162-69.231-164.939-4.504-164.939-4.504C123.974,54.031,120.985,146.201,120.985,146.201
		C58.768,241.758,225.344,295.243,285.43,319.039c37.002,14.644,38.319,32.363,37.711,47.377c-1.946,2.989-5.85,6.279-13.215,9.383
		c-3.289,1.086-6.764,2.272-10.626,3.631c-39.984,14.172-157.952,7.937-242.119,31.562c-84.146,23.625-47.457,89.179-47.457,89.179
		c-22.502,64.841,74.629,108.486,74.629,108.486c53.106,94.357,125.605,56.774,125.605,56.774
		c91.595,11.985,101.571-131.982,103.322-194.105c1.066-37.711,8.659-55.23,16.075-67.872c3.738-2.531,10.44-5.82,17.626-3.832
		c3.51,3.16,7.257,6.478,11.261,9.939c35.545,30.904,97.854,150.173,167.17,218.831c69.322,68.644,106.189-5.734,106.189-5.734
		c70.296-15.946,53.013-136.715,53.013-136.715C737.541,378.602,662.59,329.564,662.59,329.564z"></path>
</g>
</svg>
